<?xml version="1.0" encoding="UTF-8"?>
<svg width="32" height="32" viewBox="0 0 32 32" fill="none" xmlns="http://www.w3.org/2000/svg">
  <!-- 모래시계 윤곽선 -->
  <path d="M8 3C8 2.44772 8.44772 2 9 2H23C23.5523 2 24 2.44772 24 3V7C24 7 24 10 16 10C8 10 8 7 8 7V3Z" fill="#FFC107"/>
  <path d="M8 29C8 29.5523 8.44772 30 9 30H23C23.5523 30 24 29.5523 24 29V25C24 25 24 22 16 22C8 22 8 25 8 25V29Z" fill="#FFC107"/>
  
  <!-- 중앙 연결부 -->
  <path d="M16 10C24 10 24 16 16 16C8 16 8 10 16 10Z" fill="#FFD54F"/>
  <path d="M16 22C24 22 24 16 16 16C8 16 8 22 16 22Z" fill="#FFD54F"/>
  
  <!-- 모래 입자들 -->
  <circle cx="14" cy="18" r="1" fill="#FFE082"/>
  <circle cx="18" cy="19" r="1" fill="#FFE082"/>
  <circle cx="16" cy="20" r="1" fill="#FFE082"/>
  <circle cx="13" cy="21" r="1" fill="#FFE082"/>
  <circle cx="19" cy="21" r="1" fill="#FFE082"/>
  
  <!-- 상단 모래 입자들 -->
  <circle cx="14" cy="6" r="1" fill="#FFE082"/>
  <circle cx="17" cy="5" r="1" fill="#FFE082"/>
  <circle cx="19" cy="7" r="1" fill="#FFE082"/>
  <circle cx="15" cy="8" r="1" fill="#FFE082"/>
</svg> 